<svg width="439" height="413" viewBox="0 0 439 413" fill="none" xmlns="http://www.w3.org/2000/svg">
<path d="M97.2 6.3V111H76.2V66.45H31.35V111H10.35V6.3H31.35V49.35H76.2V6.3H97.2ZM195.12 67.65C195.12 70.65 194.92 73.35 194.52 75.75H133.77C134.27 81.75 136.37 86.45 140.07 89.85C143.77 93.25 148.32 94.95 153.72 94.95C161.52 94.95 167.07 91.6 170.37 84.9H193.02C190.62 92.9 186.02 99.5 179.22 104.7C172.42 109.8 164.07 112.35 154.17 112.35C146.17 112.35 138.97 110.6 132.57 107.1C126.27 103.5 121.32 98.45 117.72 91.95C114.22 85.45 112.47 77.95 112.47 69.45C112.47 60.85 114.22 53.3 117.72 46.8C121.22 40.3 126.12 35.3 132.42 31.8C138.72 28.3 145.97 26.55 154.17 26.55C162.07 26.55 169.12 28.25 175.32 31.65C181.62 35.05 186.47 39.9 189.87 46.2C193.37 52.4 195.12 59.55 195.12 67.65ZM173.37 61.65C173.27 56.25 171.32 51.95 167.52 48.75C163.72 45.45 159.07 43.8 153.57 43.8C148.37 43.8 143.97 45.4 140.37 48.6C136.87 51.7 134.72 56.05 133.92 61.65H173.37ZM231.448 -1.43051e-06V111H210.448V-1.43051e-06H231.448ZM273.196 -1.43051e-06V111H252.196V-1.43051e-06H273.196ZM330.844 112.35C322.844 112.35 315.644 110.6 309.244 107.1C302.844 103.5 297.794 98.45 294.094 91.95C290.494 85.45 288.694 77.95 288.694 69.45C288.694 60.95 290.544 53.45 294.244 46.95C298.044 40.45 303.194 35.45 309.694 31.95C316.194 28.35 323.444 26.55 331.444 26.55C339.444 26.55 346.694 28.35 353.194 31.95C359.694 35.45 364.794 40.45 368.494 46.95C372.294 53.45 374.194 60.95 374.194 69.45C374.194 77.95 372.244 85.45 368.344 91.95C364.544 98.45 359.344 103.5 352.744 107.1C346.244 110.6 338.944 112.35 330.844 112.35ZM330.844 94.05C334.644 94.05 338.194 93.15 341.494 91.35C344.894 89.45 347.594 86.65 349.594 82.95C351.594 79.25 352.594 74.75 352.594 69.45C352.594 61.55 350.494 55.5 346.294 51.3C342.194 47 337.144 44.85 331.144 44.85C325.144 44.85 320.094 47 315.994 51.3C311.994 55.5 309.994 61.55 309.994 69.45C309.994 77.35 311.944 83.45 315.844 87.75C319.844 91.95 324.844 94.05 330.844 94.05ZM31.35 156.3V261H10.35V156.3H31.35ZM82.4402 219.15C82.4402 210.75 84.0902 203.3 87.3902 196.8C90.7902 190.3 95.3402 185.3 101.04 181.8C106.84 178.3 113.29 176.55 120.39 176.55C126.59 176.55 131.99 177.8 136.59 180.3C141.29 182.8 145.04 185.95 147.84 189.75V177.9H168.99V261H147.84V248.85C145.14 252.75 141.39 256 136.59 258.6C131.89 261.1 126.44 262.35 120.24 262.35C113.24 262.35 106.84 260.55 101.04 256.95C95.3402 253.35 90.7902 248.3 87.3902 241.8C84.0902 235.2 82.4402 227.65 82.4402 219.15ZM147.84 219.45C147.84 214.35 146.84 210 144.84 206.4C142.84 202.7 140.14 199.9 136.74 198C133.34 196 129.69 195 125.79 195C121.89 195 118.29 195.95 114.99 197.85C111.69 199.75 108.99 202.55 106.89 206.25C104.89 209.85 103.89 214.15 103.89 219.15C103.89 224.15 104.89 228.55 106.89 232.35C108.99 236.05 111.69 238.9 114.99 240.9C118.39 242.9 121.99 243.9 125.79 243.9C129.69 243.9 133.34 242.95 136.74 241.05C140.14 239.05 142.84 236.25 144.84 232.65C146.84 228.95 147.84 224.55 147.84 219.45ZM292.7 176.7C302.9 176.7 311.1 179.85 317.3 186.15C323.6 192.35 326.75 201.05 326.75 212.25V261H305.75V215.1C305.75 208.6 304.1 203.65 300.8 200.25C297.5 196.75 293 195 287.3 195C281.6 195 277.05 196.75 273.65 200.25C270.35 203.65 268.7 208.6 268.7 215.1V261H247.7V215.1C247.7 208.6 246.05 203.65 242.75 200.25C239.45 196.75 234.95 195 229.25 195C223.45 195 218.85 196.75 215.45 200.25C212.15 203.65 210.5 208.6 210.5 215.1V261H189.5V177.9H210.5V187.95C213.2 184.45 216.65 181.7 220.85 179.7C225.15 177.7 229.85 176.7 234.95 176.7C241.45 176.7 247.25 178.1 252.35 180.9C257.45 183.6 261.4 187.5 264.2 192.6C266.9 187.8 270.8 183.95 275.9 181.05C281.1 178.15 286.7 176.7 292.7 176.7ZM75.6 394.95H40.2L34.95 411H0L38.85 304.8H77.25L115.95 411H80.85L75.6 394.95ZM67.5 369.9L57.9 340.35L48.3 369.9H67.5ZM225.366 411H192.066L156.816 357.6V411H123.516V304.8H156.816L192.066 359.1V304.8H225.366V411ZM308.51 394.95H273.11L267.86 411H232.91L271.76 304.8H310.16L348.86 411H313.76L308.51 394.95ZM300.41 369.9L290.81 340.35L281.21 369.9H300.41ZM397.976 412.05C385.276 412.05 374.776 409.1 366.476 403.2C358.276 397.2 353.826 388.45 353.126 376.95H388.526C389.026 383.05 391.726 386.1 396.626 386.1C398.426 386.1 399.926 385.7 401.126 384.9C402.426 384 403.076 382.65 403.076 380.85C403.076 378.35 401.726 376.35 399.026 374.85C396.326 373.25 392.126 371.45 386.426 369.45C379.626 367.05 373.976 364.7 369.476 362.4C365.076 360.1 361.276 356.75 358.076 352.35C354.876 347.95 353.326 342.3 353.426 335.4C353.426 328.5 355.176 322.65 358.676 317.85C362.276 312.95 367.126 309.25 373.226 306.75C379.426 304.25 386.376 303 394.076 303C407.076 303 417.376 306 424.976 312C432.676 318 436.726 326.45 437.126 337.35H401.276C401.176 334.35 400.426 332.2 399.026 330.9C397.626 329.6 395.926 328.95 393.926 328.95C392.526 328.95 391.376 329.45 390.476 330.45C389.576 331.35 389.126 332.65 389.126 334.35C389.126 336.75 390.426 338.75 393.026 340.35C395.726 341.85 399.976 343.7 405.776 345.9C412.476 348.4 417.976 350.8 422.276 353.1C426.676 355.4 430.476 358.6 433.676 362.7C436.876 366.8 438.476 371.95 438.476 378.15C438.476 384.65 436.876 390.5 433.676 395.7C430.476 400.8 425.826 404.8 419.726 407.7C413.626 410.6 406.376 412.05 397.976 412.05Z" fill="url(#paint0_linear_200_140)"/>
<defs>
<linearGradient id="paint0_linear_200_140" x1="226" y1="-17" x2="226" y2="417" gradientUnits="userSpaceOnUse">
<stop stop-color="white"/>
<stop offset="1" stop-color="#A1E8EF"/>
</linearGradient>
</defs>
</svg>
