<svg width="91" height="32" viewBox="0 0 91 32" fill="none" xmlns="http://www.w3.org/2000/svg">
<path d="M5.9248 2.7334L6.04199 2.58691C6.11035 2.48926 6.20801 2.43555 6.33496 2.42578C6.46191 2.40625 6.58398 2.36719 6.70117 2.30859L8.85449 1.70801C9.05957 1.65918 9.31348 1.62012 9.61621 1.59082L10.085 1.44434C10.2119 1.38574 10.3926 1.35645 10.627 1.35645L11.1104 1.25391C11.1494 1.25391 11.1836 1.29297 11.2129 1.37109C11.2422 1.43945 11.2666 1.47363 11.2861 1.47363C11.7451 1.1709 12.0381 1.01953 12.165 1.01953H12.1943L12.5459 1.10742C12.6045 1.10742 12.668 1.06836 12.7363 0.990234L12.7949 0.931641C13.0098 1.0293 13.127 1.07812 13.1465 1.07812C13.293 1.07812 13.459 1.04883 13.6445 0.990234C13.8301 0.931641 14.0059 0.902344 14.1719 0.902344L14.626 0.931641L15.6367 0.873047C15.6953 0.873047 15.7588 0.902344 15.8271 0.960938L16.1201 0.902344C16.4033 0.902344 16.6816 0.941406 16.9551 1.01953C17.2383 1.09766 17.5752 1.15625 17.9658 1.19531C18.3564 1.23438 18.6396 1.36621 18.8154 1.59082L19.0645 1.67871H19.2402C19.4941 1.67871 19.6455 1.78125 19.6943 1.98633C19.7529 2.10352 19.8701 2.2207 20.0459 2.33789L20.2363 2.64551C20.2168 2.7041 20.207 2.7627 20.207 2.82129C20.207 2.87988 20.3145 2.94824 20.5293 3.02637L20.5879 3.05566C20.5977 3.20215 20.6904 3.37305 20.8662 3.56836C21.042 3.75391 21.1299 4.10547 21.1299 4.62305V4.97461L21.1885 5.73633C21.1885 6.25391 21.0322 6.87891 20.7197 7.61133C20.417 8.34375 20.0947 8.85645 19.7529 9.14941C19.6748 9.41309 19.582 9.54492 19.4746 9.54492C19.1328 9.85742 18.9131 10.0137 18.8154 10.0137C18.7959 10.0137 18.7666 10.0039 18.7275 9.98438C18.6006 10.2188 18.3857 10.4238 18.083 10.5996C17.79 10.7754 17.5996 10.8779 17.5117 10.9072C17.4238 10.9365 17.1992 11.0195 16.8379 11.1562L16.4863 11.0684C16.3398 11.2051 16.2373 11.2783 16.1787 11.2881L15.4023 11.6104C14.748 11.7861 14.3184 11.874 14.1133 11.874L13.7471 11.7568C13.6885 11.7568 13.6006 11.8301 13.4834 11.9766L13.2051 12.0352C13.1465 11.9766 12.9561 11.9326 12.6338 11.9033C12.4971 11.9912 12.3848 12.0352 12.2969 12.0352L11.6523 12.123C11.5742 12.123 11.5254 12.0498 11.5059 11.9033L11.374 11.9473L11.3154 12.1523C11.2764 12.1719 11.2275 12.1816 11.1689 12.1816L10.3926 12.0938L10.0264 12.1816L9.42578 12.0645L9.13281 12.0938L8.88379 11.9766L8.64941 12.0059L8.41504 11.9473L8.13672 12.0059L8.07812 11.9766C8.03906 12.0547 7.99023 12.1182 7.93164 12.167C7.87305 12.2158 7.79492 12.3184 7.69727 12.4746C7.47266 12.6602 7.33105 12.8848 7.27246 13.1484C7.21387 13.4121 7.04297 13.5586 6.75977 13.5879C6.74023 13.627 6.71094 13.6758 6.67188 13.7344C6.69141 13.7539 6.7207 13.8369 6.75977 13.9834V14.042C6.75977 14.2764 6.56934 14.5156 6.18848 14.7598C6.12988 15.1113 6.05664 15.3652 5.96875 15.5215C5.89062 15.6777 5.83691 15.8096 5.80762 15.917C5.77832 16.0146 5.69531 16.0977 5.55859 16.166L5.5 16.2539V16.6787C5.5 16.6982 5.4707 16.7617 5.41211 16.8691C5.35352 16.9668 5.27051 17.1133 5.16309 17.3086L5.0752 17.4551L4.95801 17.9385C4.7627 18.0752 4.66504 18.2656 4.66504 18.5098L4.69434 19.3447C4.69434 19.4912 4.59668 19.6426 4.40137 19.7988C4.21582 19.9551 4.03027 20.0332 3.84473 20.0332C3.36621 20.0332 3.03906 19.7451 2.86328 19.1689L2.77539 19.0518C2.57031 18.8857 2.46777 18.6367 2.46777 18.3047C2.46777 17.9238 2.66797 17.3525 3.06836 16.5908L4.03516 14.8477C4.04492 14.8281 4.17188 14.7402 4.41602 14.584L4.57715 14.6426C4.61621 14.623 4.63574 14.584 4.63574 14.5254C4.63574 14.5059 4.58203 14.3643 4.47461 14.1006V14.042C4.47461 13.9639 4.50879 13.915 4.57715 13.8955L4.69434 13.7637L4.66504 13.4707C4.84082 13.207 4.93359 13.0361 4.94336 12.958L5.08984 12.6211C5.1875 12.3965 5.26562 12.2793 5.32422 12.2695C5.32422 11.8789 5.44141 11.5908 5.67578 11.4053L5.79297 11.1562C5.82227 11.0977 5.88574 11.0635 5.9834 11.0537C6.08105 11.0439 6.12988 11.0293 6.12988 11.0098C6.12988 10.9707 6.11523 10.9219 6.08594 10.8633C6.05664 10.8047 6.04199 10.7559 6.04199 10.7168C6.04199 10.6191 6.0957 10.4922 6.20312 10.3359C6.32031 10.1797 6.40332 10.1016 6.45215 10.1016L6.67188 10.2334V10.1455C6.57422 10.0576 6.52539 9.98438 6.52539 9.92578C6.52539 9.84766 6.56934 9.74512 6.65723 9.61816C6.74512 9.48145 6.79883 9.38379 6.81836 9.3252L6.93555 9.17871C6.95508 9.17871 7.00391 9.04199 7.08203 8.76855C7.16016 8.49512 7.27246 8.36328 7.41895 8.37305V8.22656C7.41895 8.12891 7.53125 7.89453 7.75586 7.52344L8.53223 6.14648C8.55176 6.04883 8.62988 5.87793 8.7666 5.63379L8.7373 5.28223C8.7373 5.12598 8.8252 4.88184 9.00098 4.5498C9.18652 4.21777 9.33789 4.05176 9.45508 4.05176C9.51367 4.05176 9.55273 4.06152 9.57227 4.08105C9.60156 4.10059 9.62598 4.11035 9.64551 4.11035L9.87988 4.08105L10.3486 4.50586C10.4756 4.61328 10.5488 4.80371 10.5684 5.07715L10.627 5.16504C10.8711 5.61426 10.9932 5.93164 10.9932 6.11719C10.9932 6.35156 10.9688 6.53223 10.9199 6.65918C10.8809 6.77637 10.7344 6.91797 10.4805 7.08398C10.2363 7.36719 10.085 7.61621 10.0264 7.83105C9.96777 8.03613 9.86523 8.23145 9.71875 8.41699C9.58203 8.60254 9.45996 8.87598 9.35254 9.2373C9.24512 9.59863 9.05957 9.86719 8.7959 10.043C8.7666 10.3066 8.72754 10.5312 8.67871 10.7168V10.7461C8.67871 10.8047 8.71777 10.834 8.7959 10.834L9.2793 10.7754C9.33789 10.7754 9.40625 10.79 9.48438 10.8193C9.57227 10.8486 9.65527 10.8633 9.7334 10.8633C9.81152 10.8633 9.90918 10.8242 10.0264 10.7461H10.1143C10.1533 10.7461 10.2754 10.7949 10.4805 10.8926L10.5391 10.8633C10.5977 10.7656 10.6562 10.7168 10.7148 10.7168L11.2861 10.7754L11.5645 10.7461C11.7012 10.6582 11.9111 10.6094 12.1943 10.5996C12.4873 10.5898 12.6875 10.5605 12.7949 10.5117C12.9121 10.4629 13.0146 10.4336 13.1025 10.4238C13.1904 10.4141 13.3027 10.375 13.4395 10.3066C13.5859 10.2383 13.708 10.2041 13.8057 10.2041C14.0303 10.2041 14.3428 10.1016 14.7432 9.89648C14.8799 9.93555 14.958 9.95508 14.9775 9.95508C15.1631 9.95508 15.3145 9.87695 15.4316 9.7207C15.5488 9.56445 15.6807 9.47656 15.8271 9.45703L16.7207 9.06152C16.7988 9.03223 16.9697 8.87109 17.2334 8.57812L17.4971 8.40234L17.6729 8.15332C17.6729 8.13379 17.7656 8.0752 17.9512 7.97754C17.9121 7.95801 17.8828 7.92871 17.8633 7.88965L18.1855 7.52344C18.166 7.42578 18.1562 7.36719 18.1562 7.34766V7.28906C18.2539 7.14258 18.3516 7.03516 18.4492 6.9668C18.5566 6.89844 18.6104 6.85449 18.6104 6.83496L18.4639 6.65918C18.6006 6.52246 18.6689 6.43457 18.6689 6.39551L18.6104 5.9707L18.6689 5.22363C18.6689 4.84277 18.6445 4.59863 18.5957 4.49121C18.5469 4.37402 18.5127 4.25684 18.4932 4.13965C18.3076 3.77832 18.0488 3.48047 17.7168 3.24609C17.6875 3.22656 17.6729 3.19238 17.6729 3.14355L17.6436 2.99707V2.93848L17.1748 2.99707C17.1553 2.99707 17.1211 2.94824 17.0723 2.85059C17.0332 2.75293 16.9648 2.7041 16.8672 2.7041L16.6621 2.79199H16.6328C16.5645 2.79199 16.3936 2.69922 16.1201 2.51367C16.0615 2.49414 15.9395 2.48438 15.7539 2.48438L15.5488 2.39648C15.4902 2.35742 15.4414 2.33789 15.4023 2.33789H15.3145L14.9775 2.39648L14.2305 2.33789L13.7764 2.25C13.6104 2.36719 13.5029 2.42578 13.4541 2.42578C13.415 2.42578 13.3223 2.39648 13.1758 2.33789H13.1465L12.707 2.39648C12.5703 2.41602 12.458 2.43555 12.3701 2.45508H12.2822C11.96 2.45508 11.7109 2.42578 11.5352 2.36719H11.4473C11.3398 2.36719 11.252 2.40625 11.1836 2.48438C11.1152 2.55273 11.0518 2.58691 10.9932 2.58691C10.9541 2.58691 10.9053 2.52344 10.8467 2.39648C10.7197 2.49414 10.627 2.55762 10.5684 2.58691L10.3047 2.48438C10.2656 2.5625 9.96777 2.64551 9.41113 2.7334L8.70801 2.87988L8.59082 2.85059C8.36621 2.92871 8.18066 2.98242 8.03418 3.01172C7.8877 3.04102 7.75586 3.08496 7.63867 3.14355C7.53125 3.19238 7.41406 3.22656 7.28711 3.24609C7.16016 3.26562 6.97461 3.31445 6.73047 3.39258L6.49609 3.33398C6.31055 3.44141 6.04199 3.56836 5.69043 3.71484C5.33887 3.86133 5.11914 3.97852 5.03125 4.06641C4.94336 4.1543 4.86035 4.19824 4.78223 4.19824C4.7627 4.19824 4.7041 4.18848 4.60645 4.16895H4.57715C4.48926 4.16895 4.34277 4.27148 4.1377 4.47656C3.94238 4.67187 3.77148 4.81348 3.625 4.90137C3.47852 4.98926 3.34668 5.13086 3.22949 5.32617C3.12207 5.51172 2.86816 5.64844 2.46777 5.73633C2.44824 5.75586 2.42871 5.78516 2.40918 5.82422V6.05859C2.25293 6.14648 2.11133 6.31738 1.98438 6.57129L1.89648 6.71777L1.86719 6.99609C1.86719 7.28906 1.82812 7.44531 1.75 7.46484C1.67188 7.48438 1.58887 7.52832 1.50098 7.59668C1.42285 7.65527 1.34473 7.68457 1.2666 7.68457C1.10059 7.68457 0.944336 7.53809 0.797852 7.24512C0.651367 6.95215 0.578125 6.77637 0.578125 6.71777C0.578125 6.1416 0.768555 5.7168 1.14941 5.44336L2.2334 4.65234C2.59473 4.38867 2.90234 4.25684 3.15625 4.25684C3.23438 4.21777 3.31738 4.125 3.40527 3.97852C3.49316 3.83203 3.69336 3.72461 4.00586 3.65625L4.24023 3.74414C4.25977 3.74414 4.28906 3.70508 4.32812 3.62695C4.36719 3.54883 4.42578 3.48535 4.50391 3.43652C4.5918 3.3877 4.66504 3.32422 4.72363 3.24609L5.10449 2.99707C5.12402 2.99707 5.14355 2.9873 5.16309 2.96777L5.38281 3.02637C5.40234 3.02637 5.43164 3.0166 5.4707 2.99707C5.50977 2.97754 5.57813 2.96777 5.67578 2.96777C5.71484 2.96777 5.74414 2.91895 5.76367 2.82129C5.80273 2.77246 5.85645 2.74316 5.9248 2.7334ZM24.1035 18.3047L23.415 18.9053C23.376 18.8662 23.3369 18.8467 23.2979 18.8467C23.2002 18.8467 23.0781 18.9346 22.9316 19.1104C22.7949 19.2861 22.6973 19.374 22.6387 19.374L22.4922 19.3447C22.248 19.5303 22.0723 19.6377 21.9648 19.667C21.8574 19.6963 21.7256 19.75 21.5693 19.8281C21.4229 19.9062 21.2861 19.9502 21.1592 19.96C21.042 19.9697 20.9443 20.0137 20.8662 20.0918C20.7881 20.1602 20.5977 20.1943 20.2949 20.1943L20.0605 20.165C19.9336 20.2236 19.8506 20.2529 19.8115 20.2529C19.7334 20.2529 19.6504 20.2139 19.5625 20.1357C19.4746 20.0479 19.377 19.999 19.2695 19.9893C19.1719 19.9795 19.0693 19.9111 18.9619 19.7842C18.8545 19.6572 18.752 19.5693 18.6543 19.5205C18.5664 19.4717 18.4932 19.4033 18.4346 19.3154L18.2295 19.1396C18.0635 19.0225 17.9023 18.8076 17.7461 18.4951C17.5898 18.1826 17.5117 17.9385 17.5117 17.7627V17.7041L17.541 17.4258L17.5117 17.1035C17.5508 17.0645 17.5996 16.9814 17.6582 16.8545V16.3857L18.0098 15.2139C18.0293 15.165 17.9902 15.1016 17.8926 15.0234C17.7949 15.1699 17.6973 15.2578 17.5996 15.2871C17.502 15.3164 17.4336 15.3848 17.3945 15.4922C17.3652 15.5996 17.3115 15.6533 17.2334 15.6533L17.0576 15.5947C17.0381 15.6143 16.9941 15.7168 16.9258 15.9023C16.8574 16.0781 16.7402 16.166 16.5742 16.166C16.3984 16.166 16.3105 16.0977 16.3105 15.9609L16.3398 15.6973L16.252 15.3311C16.252 15.2529 16.3301 15.1016 16.4863 14.877C16.6426 14.6426 16.7842 14.5107 16.9111 14.4814C17.0479 14.4424 17.1602 14.3496 17.248 14.2031C17.3457 14.0469 17.5508 13.8613 17.8633 13.6465C18.0391 13.6074 18.1904 13.4805 18.3174 13.2656C18.4541 13.1582 18.6299 13.0703 18.8447 13.002C19.0693 12.9336 19.2354 12.8359 19.3428 12.709C19.46 12.5723 19.792 12.3672 20.3389 12.0938C20.8955 11.8105 21.3008 11.6689 21.5547 11.6689C21.6328 11.6689 21.7402 11.6494 21.877 11.6104C22.0137 11.5615 22.1406 11.5225 22.2578 11.4932C22.375 11.4541 22.4971 11.4004 22.624 11.332C22.751 11.2539 22.8535 11.2148 22.9316 11.2148L23.3564 11.3613C23.6689 11.4492 23.8594 11.5127 23.9277 11.5518C23.9473 11.5713 24.0449 11.6152 24.2207 11.6836C24.4062 11.7422 24.5918 11.8252 24.7773 11.9326C24.9727 12.04 25.0703 12.2402 25.0703 12.5332C24.9043 12.7773 24.8213 12.9092 24.8213 12.9287C24.8213 12.9678 24.9336 13.0264 25.1582 13.1045C25.2363 13.251 25.3535 13.4414 25.5098 13.6758L25.6709 14.1885L25.7002 15.3896L25.6709 15.5068C25.5635 15.6045 25.5098 15.668 25.5098 15.6973L25.5537 15.9902L25.4365 16.4004C25.4072 16.5273 25.3584 16.6104 25.29 16.6494C25.2217 16.6885 25.1777 16.7373 25.1582 16.7959L25.0703 16.9131C25.0508 16.9424 25.0068 17.0303 24.9385 17.1768C24.8799 17.3135 24.8115 17.4209 24.7334 17.499C24.6553 17.5771 24.6064 17.6699 24.5869 17.7773C24.5674 17.8848 24.5186 17.9629 24.4404 18.0117C24.3623 18.0605 24.3037 18.1143 24.2646 18.1729C24.2354 18.2217 24.1816 18.2656 24.1035 18.3047ZM19.5479 18.6855L19.6064 19.0225L19.6357 19.0518H19.8701L19.9434 19.0811C20.1387 19.1201 20.2852 19.1396 20.3828 19.1396C20.6855 19.1396 20.9248 19.0664 21.1006 18.9199C21.2861 18.7637 21.4326 18.6855 21.54 18.6855C21.6475 18.6855 21.7354 18.6123 21.8037 18.4658C21.8818 18.3193 21.9307 18.2461 21.9502 18.2461H22.1553L22.2139 18.2168C22.2139 17.9922 22.3115 17.8311 22.5068 17.7334C22.7119 17.6357 22.8535 17.5088 22.9316 17.3525C23.0195 17.1865 23.1172 17.0645 23.2246 16.9863C23.332 16.8984 23.4053 16.7861 23.4443 16.6494L23.5615 16.4736C23.6006 16.4346 23.6201 16.3613 23.6201 16.2539L23.8984 15.7266C23.957 15.4824 23.9863 15.292 23.9863 15.1553C23.9863 14.9502 23.8789 14.7891 23.6641 14.6719C23.459 14.5547 23.3564 14.3252 23.3564 13.9834C23.3564 13.7588 23.4688 13.5537 23.6934 13.3682C23.9277 13.1729 24.0449 13.0557 24.0449 13.0166C24.0449 12.958 24.0156 12.9287 23.957 12.9287C23.9277 12.9287 23.8154 12.9678 23.6201 13.0459C23.5518 13.1826 23.2051 13.3633 22.5801 13.5879C22.375 13.4902 22.2627 13.4414 22.2432 13.4414C22.1846 13.4414 22.126 13.5 22.0674 13.6172C22.0088 13.7344 21.9502 13.8174 21.8916 13.8662H21.7012C21.6816 13.8662 21.6182 13.9297 21.5107 14.0566C21.4033 14.1836 21.2666 14.2471 21.1006 14.2471L20.9248 14.4229C20.9346 14.5791 20.8369 14.7402 20.6318 14.9062L20.4707 15.0967C20.373 15.2139 20.2461 15.3506 20.0898 15.5068L19.8262 16.166C19.7188 16.4199 19.665 16.6104 19.665 16.7373C19.6357 16.7959 19.5674 16.8594 19.46 16.9277C19.3623 16.9863 19.3135 17.0645 19.3135 17.1621C19.3135 17.1816 19.3477 17.2305 19.416 17.3086C19.4844 17.3867 19.5186 17.4453 19.5186 17.4844L19.46 17.6748L19.4014 18.2168L19.5479 18.6855ZM30.1094 12.7236L30.3291 12.665L30.417 12.4746C30.8955 12.1914 31.2373 11.9229 31.4424 11.6689C31.4619 11.6299 31.5059 11.5908 31.5742 11.5518C31.6426 11.5127 31.7158 11.4443 31.7939 11.3467C32.1553 10.9854 32.585 10.8047 33.083 10.8047C33.6689 10.8047 33.9814 11.1611 34.0205 11.874L34.1084 12.0938C34.1865 12.2305 34.2939 12.5088 34.4307 12.9287C34.5771 13.3486 34.6504 13.6074 34.6504 13.7051C34.6504 13.9688 34.5674 14.2324 34.4014 14.4961C34.2646 14.5645 33.9375 14.9307 33.4199 15.5947L33.2734 15.6973C33.1953 15.873 33.0928 16.0488 32.9658 16.2246C32.7705 16.293 32.6729 16.3662 32.6729 16.4443V16.708C32.6729 16.7275 32.6484 16.7666 32.5996 16.8252C32.5605 16.8838 32.502 16.9961 32.4238 17.1621L32.3066 17.3379C32.2676 17.377 32.2285 17.46 32.1895 17.5869C32.1504 17.7041 32.0918 17.8115 32.0137 17.9092C31.9453 18.0068 31.9111 18.085 31.9111 18.1436C31.9111 18.29 32.1016 18.3633 32.4824 18.3633C32.502 18.3633 32.5752 18.334 32.7021 18.2754L32.9072 18.334C32.9268 18.334 32.9756 18.3047 33.0537 18.2461C33.1318 18.1777 33.249 18.124 33.4053 18.085C33.5713 18.0459 33.7129 17.9873 33.8301 17.9092C33.957 17.8311 34.1035 17.7627 34.2695 17.7041C34.4453 17.6455 34.6113 17.5527 34.7676 17.4258C34.9238 17.2891 35.0752 17.1914 35.2217 17.1328C35.3779 17.0742 35.5195 16.9863 35.6465 16.8691C35.7832 16.7422 35.9346 16.625 36.1006 16.5176C36.2666 16.4102 36.5303 16.1758 36.8916 15.8145C37.126 15.6289 37.2871 15.5264 37.375 15.5068C37.3945 15.5068 37.4775 15.3799 37.624 15.126C37.7803 14.8623 37.9561 14.7305 38.1514 14.7305C38.3564 14.7305 38.459 14.8281 38.459 15.0234C38.459 15.1309 38.4102 15.2334 38.3125 15.3311V15.4189L38.3418 15.6533C38.3613 15.6826 38.3711 15.7266 38.3711 15.7852C38.3711 15.8242 38.332 15.8828 38.2539 15.9609C38.1855 16.0391 38.1367 16.1416 38.1074 16.2686C38.0781 16.3857 37.9854 16.4639 37.8291 16.5029C37.7705 16.7178 37.6924 16.8398 37.5947 16.8691C37.5068 16.8984 37.3799 16.9961 37.2139 17.1621C37.0479 17.3281 36.8135 17.5234 36.5107 17.748C36.208 17.9727 35.998 18.1484 35.8809 18.2754C35.7734 18.3926 35.7002 18.4512 35.6611 18.4512C35.6416 18.4512 35.6025 18.4316 35.5439 18.3926C35.4854 18.3535 35.4463 18.334 35.4268 18.334C35.3682 18.334 35.3291 18.4023 35.3096 18.5391L35.251 18.6855C35.124 18.7637 35.0508 18.8027 35.0312 18.8027L34.9434 18.7734H34.8848C34.7676 18.7734 34.709 18.8174 34.709 18.9053L34.7969 19.0518V19.0811C34.7969 19.2178 34.7188 19.2861 34.5625 19.2861C34.4551 19.2861 34.1426 19.4668 33.625 19.8281L33.2002 19.916L32.8486 20.1064C32.7314 20.0381 32.6582 20.0039 32.6289 20.0039L32.3945 20.0771L31.9697 20.1064C31.96 20.1064 31.7793 20.0088 31.4277 19.8135C31.0859 19.6182 30.8809 19.4229 30.8125 19.2275C30.7441 19.0322 30.6562 18.8369 30.5488 18.6416C30.4414 18.4365 30.3877 18.2949 30.3877 18.2168C30.3877 17.748 30.4268 17.416 30.5049 17.2207C30.583 17.0156 30.6318 16.8643 30.6514 16.7666C30.6709 16.6689 30.7246 16.5664 30.8125 16.459C30.9102 16.3418 30.9883 16.1562 31.0469 15.9023C31.3301 15.3359 31.5254 14.9893 31.6328 14.8623C31.7402 14.7354 31.8232 14.5791 31.8818 14.3936L32.0723 14.1299C32.0918 14.1104 32.1211 14.0371 32.1602 13.9102C32.1992 13.7734 32.248 13.6953 32.3066 13.6758C32.3848 13.5391 32.4238 13.4512 32.4238 13.4121C32.4238 13.1289 32.2969 12.9873 32.043 12.9873C31.9941 12.9873 31.9404 13.041 31.8818 13.1484C31.8232 13.2461 31.6865 13.3438 31.4717 13.4414C31.2666 13.5391 31.1396 13.6123 31.0908 13.6611C31.042 13.71 30.9346 13.7734 30.7686 13.8516C30.6123 13.9199 30.4756 14.0322 30.3584 14.1885L30.1094 14.3057C30.0312 14.4912 29.9629 14.5938 29.9043 14.6133C29.8457 14.6328 29.665 14.6816 29.3623 14.7598C29.3428 14.7695 29.2939 14.8281 29.2158 14.9355C29.1377 15.043 29.0254 15.0967 28.8789 15.0967C28.7617 15.2139 28.6445 15.3506 28.5273 15.5068C28.4883 15.5068 28.3857 15.5459 28.2197 15.624L27.9268 15.6973C27.8486 15.7559 27.7607 15.8486 27.6631 15.9756C27.5752 16.1025 27.4043 16.166 27.1504 16.166C27.0039 16.166 26.9307 16.0488 26.9307 15.8145C26.9307 15.3359 27.0967 14.9551 27.4287 14.6719C27.7705 14.3887 28.0195 14.2373 28.1758 14.2178C28.332 14.1982 28.4297 14.1396 28.4688 14.042C28.5078 13.9443 28.6006 13.8662 28.7471 13.8076C28.9033 13.7393 29.0791 13.5977 29.2744 13.3828C29.4795 13.1582 29.6992 13.0068 29.9336 12.9287L30.1094 12.7236ZM42.3701 6.60059L42.5752 6.54199L42.7217 6.39551H42.751L42.8828 6.4541H42.9121C43.1465 6.4541 43.3516 6.41016 43.5273 6.32227C43.7129 6.22461 43.8643 6.15625 43.9814 6.11719C44.1084 6.07812 44.1865 6.04883 44.2158 6.0293C44.2451 6.00977 44.2695 6 44.2891 6L44.5234 6.0293C44.6016 6.0293 44.7041 5.89258 44.8311 5.61914C44.9678 5.33594 45.1191 5.13086 45.2852 5.00391C45.4512 4.87695 45.6172 4.6377 45.7832 4.28613C45.8223 4.2373 45.8662 4.16406 45.915 4.06641C45.9639 3.95898 46.0029 3.90527 46.0322 3.90527C46.1787 3.90527 46.2959 3.8125 46.3838 3.62695C46.6768 3.28516 46.916 3.11426 47.1016 3.11426C47.3457 3.11426 47.5166 3.34863 47.6143 3.81738L47.7607 4.37402C47.7607 4.38379 47.7363 4.45703 47.6875 4.59375C47.6387 4.7207 47.6143 4.85254 47.6143 4.98926C47.624 5.11621 47.6191 5.2041 47.5996 5.25293C47.5898 5.29199 47.585 5.34082 47.585 5.39941C47.585 5.47754 47.668 5.5166 47.834 5.5166C47.8926 5.5166 48 5.47754 48.1562 5.39941L48.2441 5.37012C48.3418 5.42871 48.4248 5.45801 48.4932 5.45801C48.5127 5.45801 48.6494 5.40918 48.9033 5.31152C49.167 5.21387 49.333 5.16016 49.4014 5.15039C49.4697 5.14062 49.5869 5.10156 49.7529 5.0332H49.9287L50.0459 5.07715C50.085 5.07715 50.1631 5.03809 50.2803 4.95996C50.4072 4.87207 50.6416 4.81836 50.9834 4.79883L51.1885 4.71094H51.2471C51.5693 4.71094 51.7305 4.85254 51.7305 5.13574C51.7305 5.19434 51.6816 5.29688 51.584 5.44336C51.4961 5.58984 51.4229 5.75586 51.3643 5.94141L50.6904 6.79102C50.4658 7.08398 50.2412 7.23047 50.0166 7.23047C49.9775 7.23047 49.8555 7.09863 49.6504 6.83496C49.6504 6.81543 49.6309 6.80566 49.5918 6.80566C49.4941 6.80566 49.3916 6.8252 49.2842 6.86426C49.1768 6.90332 49.0889 6.92285 49.0205 6.92285C48.9912 6.92285 48.7324 6.99609 48.2441 7.14258L47.8926 7.20117C47.8535 7.20117 47.7607 7.2207 47.6143 7.25977L46.8672 7.40625C46.6133 7.5332 46.4131 7.77246 46.2666 8.12402C46.2666 8.14355 46.2178 8.1875 46.1201 8.25586L45.4609 9.45703C45.2461 9.51562 45.1045 9.64258 45.0361 9.83789L44.9775 9.92578C44.8701 9.94531 44.7725 10.0088 44.6846 10.1162C44.5967 10.2139 44.5137 10.292 44.4355 10.3506L44.1719 10.7461C44.0645 10.8828 43.957 11.0342 43.8496 11.2002C43.7422 11.3564 43.6641 11.5273 43.6152 11.7129C43.5664 11.8887 43.5273 11.9912 43.498 12.0205C43.4688 12.0498 43.4541 12.1035 43.4541 12.1816L43.4102 12.2988C43.293 12.416 43.2344 12.5479 43.2344 12.6943L43.293 12.9287C43.1562 13.3975 43.0879 13.6465 43.0879 13.6758C43.0879 13.6953 43.0977 13.749 43.1172 13.8369V13.9248C43.1172 14.1396 43.0391 14.4082 42.8828 14.7305L42.9121 14.9648L42.8242 15.624C42.8242 15.7119 42.8535 15.873 42.9121 16.1074C42.873 16.1465 42.8535 16.1758 42.8535 16.1953C42.8535 16.4688 42.9951 16.7715 43.2783 17.1035C43.5713 17.4258 43.7178 17.9336 43.7178 18.627C43.7178 18.6855 43.7031 18.7734 43.6738 18.8906C43.6445 18.998 43.625 19.1201 43.6152 19.2568C43.6055 19.3838 43.5273 19.5107 43.3809 19.6377C43.2441 19.7646 43.127 19.8281 43.0293 19.8281C42.5117 19.8281 42.126 19.4521 41.8721 18.7002C41.6182 17.9482 41.4912 17.4648 41.4912 17.25L41.5205 16.6787L41.4326 16.3857L41.5205 15.0967L41.4619 14.7891L41.7988 13.5293V13.0752C41.7988 13.0557 41.8672 12.9775 42.0039 12.8408C42.0039 12.8213 41.9844 12.8115 41.9453 12.8115C41.8867 12.8115 41.8086 12.8701 41.7109 12.9873C41.6133 13.1045 41.4912 13.2168 41.3447 13.3242L41.2275 13.5293C41.208 13.5098 41.1689 13.4902 41.1104 13.4707C41.0615 13.4902 40.9004 13.7197 40.627 14.1592C40.4219 14.1885 40.2607 14.3057 40.1436 14.5107C40.0264 14.7158 39.8652 14.8184 39.6602 14.8184L39.6016 14.8477C39.5625 15.1309 39.4258 15.2725 39.1914 15.2725L39.1328 15.3018C38.9863 15.6338 38.835 15.7949 38.6787 15.7852C38.5811 16.0781 38.3418 16.2783 37.9609 16.3857C37.9023 16.5029 37.8193 16.5908 37.7119 16.6494C37.5947 16.708 37.5117 16.7617 37.4629 16.8105C37.4141 16.8594 37.3701 16.8838 37.3311 16.8838C37.2041 16.8838 37.1406 16.7471 37.1406 16.4736C37.1406 16.3955 37.1748 16.3125 37.2432 16.2246C37.3018 16.127 37.3311 16.0586 37.3311 16.0195C37.3311 16 37.2822 15.9414 37.1846 15.8438C37.1846 15.541 37.2627 15.3506 37.4189 15.2725C37.5752 15.1943 37.6924 15.082 37.7705 14.9355C37.8193 14.8184 37.917 14.7354 38.0635 14.6865C38.21 14.6377 38.2832 14.5742 38.2832 14.4961C38.2832 14.4277 38.4102 14.291 38.6641 14.0859C38.918 13.8809 39.1035 13.7051 39.2207 13.5586C39.3379 13.4023 39.4355 13.3242 39.5137 13.3242L39.5723 13.2656C39.5918 13.0215 39.6846 12.8994 39.8506 12.8994L39.9971 12.8115L40.0264 12.6943L40.1143 12.6357H40.2314L40.3047 12.5771C40.3242 12.333 40.4365 12.1426 40.6416 12.0059C40.8564 11.8691 41.2422 11.4883 41.7988 10.8633C42.3555 10.2285 42.668 9.82324 42.7363 9.64746C42.8047 9.47168 42.9268 9.2373 43.1025 8.94434C43.2881 8.6416 43.3906 8.3584 43.4102 8.09473C43.3906 8.05566 43.3613 8.0166 43.3223 7.97754L42.6924 8.28516C42.6924 8.25586 42.5947 8.21191 42.3994 8.15332C42.2529 8.24121 42.1455 8.3291 42.0771 8.41699C42.0088 8.50488 41.9551 8.54883 41.916 8.54883L41.7109 8.51953L41.0664 8.59277C40.4902 8.6416 40.0557 8.75879 39.7627 8.94434L39.1621 9.12012H39.0303C38.9521 9.12012 38.835 9.16895 38.6787 9.2666L38.3418 9.2373C38.0293 9.40332 37.7998 9.48633 37.6533 9.48633C37.6338 9.48633 37.5752 9.47656 37.4775 9.45703L35.9834 9.86719C35.8662 9.90625 35.6025 10.1064 35.1924 10.4678L35.0752 10.4971C34.9775 10.4971 34.8652 10.3896 34.7383 10.1748C34.6016 9.9502 34.5332 9.75 34.5332 9.57422C34.5332 8.60742 35.3633 8.0459 37.0234 7.88965L37.624 7.65527H37.6533L37.8145 7.71387H37.873C37.9316 7.71387 38.0244 7.67969 38.1514 7.61133C38.2783 7.5332 38.5615 7.44043 39.001 7.33301L39.6016 7.17188L39.792 7.20117C39.8896 7.20117 39.9971 7.16211 40.1143 7.08398C40.2412 7.00586 40.4268 6.95215 40.6709 6.92285C40.9248 6.88379 41.1006 6.84473 41.1982 6.80566L41.4326 6.74707C41.4717 6.74707 41.5498 6.71289 41.667 6.64453C41.7939 6.57617 41.9551 6.54199 42.1504 6.54199C42.1797 6.54199 42.2529 6.56152 42.3701 6.60059ZM44.4209 23.7539L44.5674 23.4316L44.6553 23.0654C44.6553 23.0264 44.7041 22.9678 44.8018 22.8896C44.8896 22.8115 44.9336 22.7432 44.9336 22.6846C45.168 21.7764 45.4072 21.1562 45.6514 20.8242L46.0029 19.9453C46.042 19.75 46.1348 19.5938 46.2812 19.4766C46.418 19.3594 46.4863 19.2568 46.4863 19.1689C46.4863 19.1104 46.3887 19.0273 46.1934 18.9199C45.9883 18.8027 45.8857 18.6953 45.8857 18.5977C45.8857 18.5 46.208 18.3096 46.8525 18.0264C46.8525 17.7529 46.999 17.4648 47.292 17.1621C47.3604 17.1035 47.3945 17.0352 47.3945 16.957C47.3945 16.7227 47.4434 16.5322 47.541 16.3857L47.6582 16.0488C47.6973 15.9316 47.7754 15.8047 47.8926 15.668C48.0195 15.5215 48.083 15.3799 48.083 15.2432V15.126C47.9561 15.1162 47.7754 15.2822 47.541 15.624C47.2969 15.624 47.0967 15.8047 46.9404 16.166C46.8623 16.3711 46.6816 16.5029 46.3984 16.5615C46.2715 16.7959 46.0615 16.957 45.7686 17.0449C45.5635 16.918 45.4609 16.8105 45.4609 16.7227L45.5928 15.8145C45.5928 15.6094 46.0908 15.0967 47.0869 14.2764C47.1455 14.2764 47.3359 14.0908 47.6582 13.7197L48.4639 12.8115C48.9033 12.3721 49.2354 12.0498 49.46 11.8447C49.8799 11.1807 50.0898 10.7412 50.0898 10.5264C50.2852 10.3506 50.4512 9.98926 50.5879 9.44238C50.7344 8.88574 50.8662 8.48535 50.9834 8.24121C51.1104 7.9873 51.1836 7.80176 51.2031 7.68457C51.5938 6.50293 51.8818 5.76074 52.0674 5.45801L52.2139 4.97461L52.4336 4.79883C52.4531 4.75 52.4727 4.59863 52.4922 4.34473C52.5996 4.30566 52.7119 4.09082 52.8291 3.7002C52.9463 3.30957 53.0635 3.04102 53.1807 2.89453C53.2979 2.74805 53.376 2.59668 53.415 2.44043C53.4541 2.27441 53.5713 2.11328 53.7666 1.95703C53.9717 1.79102 54.1768 1.70801 54.3818 1.70801C54.4502 1.70801 54.5625 1.81055 54.7188 2.01562C54.8848 2.21094 54.9824 2.44043 55.0117 2.7041C55.0508 2.95801 55.0801 3.13379 55.0996 3.23145C55.1191 3.31934 55.1289 3.44141 55.1289 3.59766L55.1582 4.02246C55.1582 4.10059 55.1191 4.34961 55.041 4.76953C54.9629 5.18945 54.9043 5.49219 54.8652 5.67773C54.8359 5.85352 54.7383 5.9707 54.5723 6.0293C54.4062 6.08789 54.3232 6.14648 54.3232 6.20508C54.3232 6.26367 54.3623 6.3125 54.4404 6.35156C54.5186 6.38086 54.5576 6.40527 54.5576 6.4248C54.5576 6.46387 54.499 6.5957 54.3818 6.82031C54.2744 7.03516 54.1719 7.17188 54.0742 7.23047C54.1328 7.34766 54.1621 7.41602 54.1621 7.43555C54.1621 7.48438 54.0889 7.64062 53.9424 7.9043C53.8057 8.1582 53.6934 8.3291 53.6055 8.41699C53.5176 8.50488 53.4297 8.70508 53.3418 9.01758C53.2539 9.33008 53.0293 9.59375 52.668 9.80859C52.5312 9.94531 52.4092 10.1699 52.3018 10.4824C52.2041 10.7949 52.0576 10.9902 51.8623 11.0684L51.6719 11.3467V11.4053C51.6719 11.5518 51.623 11.7129 51.5254 11.8887C51.4277 12.0645 51.3301 12.2744 51.2324 12.5186C51.1348 12.7529 51.042 12.9092 50.9541 12.9873C50.915 13.2119 50.8467 13.417 50.749 13.6025C50.6514 13.7783 50.5928 13.9346 50.5732 14.0713L50.4707 14.1885C50.2754 14.2178 50.1777 14.3105 50.1777 14.4668L50.2363 14.7891C50.2363 14.7988 50.1484 14.96 49.9727 15.2725L49.9141 15.5654C49.8652 15.8096 49.7725 15.9756 49.6357 16.0635C49.499 16.1416 49.4111 16.3223 49.3721 16.6055L49.3135 16.957C49.3135 16.9766 49.3232 17.0059 49.3428 17.0449C49.3623 17.0449 49.4209 16.9912 49.5186 16.8838C49.6553 16.9326 49.7334 16.957 49.7529 16.957C49.8115 16.957 49.8652 16.918 49.9141 16.8398C49.9727 16.752 50.0605 16.6885 50.1777 16.6494L50.2363 16.6201C50.2852 16.4834 50.3584 16.4102 50.4561 16.4004C50.5537 16.3906 50.6367 16.3467 50.7051 16.2686C50.7734 16.1807 50.8271 16.1367 50.8662 16.1367C50.8857 16.1367 50.9541 16.1758 51.0713 16.2539H51.1006L51.2324 16.1953L51.2031 15.9609C51.2031 15.8633 51.2471 15.7998 51.335 15.7705C51.4229 15.7412 51.4863 15.6924 51.5254 15.624L52.0674 15.2725C52.3018 15.1748 52.4727 15.0723 52.5801 14.9648C52.6973 14.8477 52.8193 14.7646 52.9463 14.7158C53.083 14.667 53.1855 14.6084 53.2539 14.54C53.332 14.4619 53.498 14.4131 53.752 14.3936C54.0352 14.1494 54.2549 13.9834 54.4111 13.8955L54.5283 13.7344C54.5479 13.7148 54.5869 13.6953 54.6455 13.6758C54.7041 13.6562 54.7773 13.5977 54.8652 13.5C54.9629 13.4023 55.0508 13.3535 55.1289 13.3535C55.3242 13.3535 55.4219 13.4512 55.4219 13.6465C55.4219 13.9688 55.2754 14.2275 54.9824 14.4229L54.9531 14.4668C54.9043 14.8574 54.7822 15.0527 54.5869 15.0527C54.5479 15.0527 54.4795 15.1357 54.3818 15.3018C54.2744 15.2822 54.2109 15.2725 54.1914 15.2725C54.1133 15.3896 54.0156 15.4971 53.8984 15.5947H53.8105C53.6543 15.5947 53.0244 16.0488 51.9209 16.957C51.8623 17.0156 51.8135 17.0547 51.7744 17.0742L51.4961 17.0449C51.4961 17.0645 51.4375 17.1621 51.3203 17.3379C51.1738 17.3867 51.0127 17.4795 50.8369 17.6162C50.6611 17.7529 50.5293 17.8408 50.4414 17.8799C50.3633 17.9189 50.29 17.9873 50.2217 18.085C50.1533 18.1729 50.0605 18.2363 49.9434 18.2754L49.7529 18.4512H49.665C49.5869 18.4512 49.4893 18.5 49.3721 18.5977C49.2646 18.6953 49.2109 18.7881 49.2109 18.876C49.2109 18.915 49.2549 18.9932 49.3428 19.1104C49.4209 19.0518 49.6943 19.3496 50.1631 20.0039C50.6318 20.6484 50.8662 21.2686 50.8662 21.8643C50.8662 22.3037 50.7979 22.5869 50.6611 22.7139C50.5342 22.8506 50.4707 22.9482 50.4707 23.0068C50.4707 23.0459 50.4854 23.1582 50.5146 23.3438V23.4023C50.5146 23.5 50.4561 23.5586 50.3389 23.5781C50.2314 23.5977 50.168 23.6367 50.1484 23.6953V24.0615L50.0898 24.2373C49.9629 24.3057 49.8311 24.5352 49.6943 24.9258C49.4014 25.2285 49.1914 25.3994 49.0645 25.4385L49.0352 25.4971L49.0645 25.8926C49.0645 25.9902 49.0205 26.0684 48.9326 26.127C48.8447 26.1855 48.7227 26.3076 48.5664 26.4932C48.4199 26.6885 48.2686 26.8252 48.1123 26.9033C48.0732 27.0889 47.9951 27.2207 47.8779 27.2988C47.7705 27.377 47.6582 27.4893 47.541 27.6357L47.4531 27.6943C47.3652 27.7139 47.2822 27.8213 47.2041 28.0166L47.0869 28.0459C46.9502 28.2803 46.8135 28.4463 46.6768 28.5439C46.5498 28.6514 46.457 28.749 46.3984 28.8369L46.1641 28.9834C46.0762 29.1592 45.8955 29.3594 45.6221 29.584C45.6025 29.584 45.5635 29.5547 45.5049 29.4961H45.4609C45.4219 29.4961 45.3877 29.5352 45.3584 29.6133C45.3291 29.6914 45.2754 29.7646 45.1973 29.833C45.1191 29.9014 45.041 29.999 44.9629 30.126L44.9043 30.1846C44.7773 30.1846 44.5771 30.3555 44.3037 30.6973C44.1182 30.7363 43.957 30.8047 43.8203 30.9023C43.6152 31.1367 43.4736 31.2539 43.3955 31.2539C43.3857 31.2539 43.2783 31.1709 43.0732 31.0049C42.8682 30.8486 42.7656 30.5947 42.7656 30.2432C42.7656 30.1553 42.707 30.0527 42.5898 29.9355C42.5703 29.8281 42.5508 29.6719 42.5312 29.4668V29.335C42.5312 29.2178 42.5703 29.0811 42.6484 28.9248L42.7363 28.6172C42.7559 28.5391 42.7852 28.4756 42.8242 28.4268C42.8633 28.3779 42.9219 28.2363 43 28.002C43.0684 27.7773 43.1514 27.5527 43.249 27.3281L43.2783 27.1816C43.3857 26.7129 43.4736 26.4834 43.542 26.4932C43.6006 26.3467 43.6592 26.1514 43.7178 25.9072C43.7764 25.6631 43.8203 25.4629 43.8496 25.3066C43.8691 25.1504 43.9375 25.0234 44.0547 24.9258L44.4209 23.7539ZM47.4531 20.9414L47.5117 21.5713C47.5117 21.6104 47.4287 21.7959 47.2627 22.1279C47.1064 22.4697 47.0039 22.7432 46.9551 22.9482C46.9062 23.1533 46.7988 23.2559 46.6328 23.2559H46.4863C46.4668 23.2949 46.457 23.334 46.457 23.373L46.4863 23.6953C46.4863 23.8223 46.4521 24.0469 46.3838 24.3691C46.3154 24.6914 46.2178 24.8965 46.0908 24.9844L46.0029 25.0869C45.9834 25.2334 45.9102 25.4629 45.7832 25.7754C45.6465 26.0977 45.5342 26.3467 45.4463 26.5225C45.3584 26.708 45.29 26.9326 45.2412 27.1963C45.1924 27.4697 45.1289 27.6455 45.0508 27.7236C44.9922 27.9971 44.9336 28.2217 44.875 28.3975C44.8164 28.583 44.7432 28.8271 44.6553 29.1299C44.6748 29.1689 44.7041 29.1885 44.7432 29.1885C44.8018 29.1885 44.875 29.0811 44.9629 28.8662C45.002 28.8271 45.0703 28.7979 45.168 28.7783C45.2559 28.7686 45.334 28.666 45.4023 28.4707L45.4316 28.4121C45.5391 28.3926 45.6172 28.334 45.666 28.2363C45.7148 28.1484 45.7686 28.0947 45.8271 28.0752C45.8857 28.0557 45.9541 28.0068 46.0322 27.9287L46.1348 27.8994C46.1738 27.8799 46.208 27.8262 46.2373 27.7383C46.2666 27.6504 46.3008 27.582 46.3398 27.5332H46.5449L46.6035 27.5039C46.6816 27.1914 46.7744 26.9863 46.8818 26.8887C46.999 26.8008 47.0869 26.6934 47.1455 26.5664C47.2041 26.4395 47.2725 26.3418 47.3506 26.2734C47.4385 26.2051 47.502 26.0781 47.541 25.8926C47.7168 25.6875 47.8291 25.5264 47.8779 25.4092C47.9268 25.292 47.9951 25.1943 48.083 25.1162L48.1123 25.0137L48.0537 24.8379V24.7793C48.0537 24.7012 48.166 24.5059 48.3906 24.1934C48.625 23.8809 48.7715 23.6172 48.8301 23.4023C48.8887 23.1973 48.9424 23.0312 48.9912 22.9043C49.04 22.7773 49.0791 22.6309 49.1084 22.4648C49.1377 22.3086 49.1914 22.1768 49.2695 22.0693C49.3477 21.9717 49.3867 21.835 49.3867 21.6592C49.3867 21.3564 49.25 20.9756 48.9766 20.5166C48.957 20.4971 48.9375 20.4385 48.918 20.3408C48.8984 20.2432 48.8008 20.1309 48.625 20.0039C48.459 19.8672 48.3369 19.7988 48.2588 19.7988L48.1416 19.8574C48.1221 19.877 48.0586 19.9062 47.9512 19.9453C47.8535 19.9844 47.8047 20.0771 47.8047 20.2236V20.2822L47.834 20.6045C47.834 20.6924 47.707 20.8047 47.4531 20.9414ZM60.6074 18.3047L59.9189 18.9053C59.8799 18.8662 59.8408 18.8467 59.8018 18.8467C59.7041 18.8467 59.582 18.9346 59.4355 19.1104C59.2988 19.2861 59.2012 19.374 59.1426 19.374L58.9961 19.3447C58.752 19.5303 58.5762 19.6377 58.4688 19.667C58.3613 19.6963 58.2295 19.75 58.0732 19.8281C57.9268 19.9062 57.79 19.9502 57.6631 19.96C57.5459 19.9697 57.4482 20.0137 57.3701 20.0918C57.292 20.1602 57.1016 20.1943 56.7988 20.1943L56.5645 20.165C56.4375 20.2236 56.3545 20.2529 56.3154 20.2529C56.2373 20.2529 56.1543 20.2139 56.0664 20.1357C55.9785 20.0479 55.8809 19.999 55.7734 19.9893C55.6758 19.9795 55.5732 19.9111 55.4658 19.7842C55.3584 19.6572 55.2559 19.5693 55.1582 19.5205C55.0703 19.4717 54.9971 19.4033 54.9385 19.3154L54.7334 19.1396C54.5674 19.0225 54.4062 18.8076 54.25 18.4951C54.0938 18.1826 54.0156 17.9385 54.0156 17.7627V17.7041L54.0449 17.4258L54.0156 17.1035C54.0547 17.0645 54.1035 16.9814 54.1621 16.8545V16.3857L54.5137 15.2139C54.5332 15.165 54.4941 15.1016 54.3965 15.0234C54.2988 15.1699 54.2012 15.2578 54.1035 15.2871C54.0059 15.3164 53.9375 15.3848 53.8984 15.4922C53.8691 15.5996 53.8154 15.6533 53.7373 15.6533L53.5615 15.5947C53.542 15.6143 53.498 15.7168 53.4297 15.9023C53.3613 16.0781 53.2441 16.166 53.0781 16.166C52.9023 16.166 52.8145 16.0977 52.8145 15.9609L52.8438 15.6973L52.7559 15.3311C52.7559 15.2529 52.834 15.1016 52.9902 14.877C53.1465 14.6426 53.2881 14.5107 53.415 14.4814C53.5518 14.4424 53.6641 14.3496 53.752 14.2031C53.8496 14.0469 54.0547 13.8613 54.3672 13.6465C54.543 13.6074 54.6943 13.4805 54.8213 13.2656C54.958 13.1582 55.1338 13.0703 55.3486 13.002C55.5732 12.9336 55.7393 12.8359 55.8467 12.709C55.9639 12.5723 56.2959 12.3672 56.8428 12.0938C57.3994 11.8105 57.8047 11.6689 58.0586 11.6689C58.1367 11.6689 58.2441 11.6494 58.3809 11.6104C58.5176 11.5615 58.6445 11.5225 58.7617 11.4932C58.8789 11.4541 59.001 11.4004 59.1279 11.332C59.2549 11.2539 59.3574 11.2148 59.4355 11.2148L59.8604 11.3613C60.1729 11.4492 60.3633 11.5127 60.4316 11.5518C60.4512 11.5713 60.5488 11.6152 60.7246 11.6836C60.9102 11.7422 61.0957 11.8252 61.2812 11.9326C61.4766 12.04 61.5742 12.2402 61.5742 12.5332C61.4082 12.7773 61.3252 12.9092 61.3252 12.9287C61.3252 12.9678 61.4375 13.0264 61.6621 13.1045C61.7402 13.251 61.8574 13.4414 62.0137 13.6758L62.1748 14.1885L62.2041 15.3896L62.1748 15.5068C62.0674 15.6045 62.0137 15.668 62.0137 15.6973L62.0576 15.9902L61.9404 16.4004C61.9111 16.5273 61.8623 16.6104 61.7939 16.6494C61.7256 16.6885 61.6816 16.7373 61.6621 16.7959L61.5742 16.9131C61.5547 16.9424 61.5107 17.0303 61.4424 17.1768C61.3838 17.3135 61.3154 17.4209 61.2373 17.499C61.1592 17.5771 61.1104 17.6699 61.0908 17.7773C61.0713 17.8848 61.0225 17.9629 60.9443 18.0117C60.8662 18.0605 60.8076 18.1143 60.7686 18.1729C60.7393 18.2217 60.6855 18.2656 60.6074 18.3047ZM56.0518 18.6855L56.1104 19.0225L56.1396 19.0518H56.374L56.4473 19.0811C56.6426 19.1201 56.7891 19.1396 56.8867 19.1396C57.1895 19.1396 57.4287 19.0664 57.6045 18.9199C57.79 18.7637 57.9365 18.6855 58.0439 18.6855C58.1514 18.6855 58.2393 18.6123 58.3076 18.4658C58.3857 18.3193 58.4346 18.2461 58.4541 18.2461H58.6592L58.7178 18.2168C58.7178 17.9922 58.8154 17.8311 59.0107 17.7334C59.2158 17.6357 59.3574 17.5088 59.4355 17.3525C59.5234 17.1865 59.6211 17.0645 59.7285 16.9863C59.8359 16.8984 59.9092 16.7861 59.9482 16.6494L60.0654 16.4736C60.1045 16.4346 60.124 16.3613 60.124 16.2539L60.4023 15.7266C60.4609 15.4824 60.4902 15.292 60.4902 15.1553C60.4902 14.9502 60.3828 14.7891 60.168 14.6719C59.9629 14.5547 59.8604 14.3252 59.8604 13.9834C59.8604 13.7588 59.9727 13.5537 60.1973 13.3682C60.4316 13.1729 60.5488 13.0557 60.5488 13.0166C60.5488 12.958 60.5195 12.9287 60.4609 12.9287C60.4316 12.9287 60.3193 12.9678 60.124 13.0459C60.0557 13.1826 59.709 13.3633 59.084 13.5879C58.8789 13.4902 58.7666 13.4414 58.7471 13.4414C58.6885 13.4414 58.6299 13.5 58.5713 13.6172C58.5127 13.7344 58.4541 13.8174 58.3955 13.8662H58.2051C58.1855 13.8662 58.1221 13.9297 58.0146 14.0566C57.9072 14.1836 57.7705 14.2471 57.6045 14.2471L57.4287 14.4229C57.4385 14.5791 57.3408 14.7402 57.1357 14.9062L56.9746 15.0967C56.877 15.2139 56.75 15.3506 56.5938 15.5068L56.3301 16.166C56.2227 16.4199 56.1689 16.6104 56.1689 16.7373C56.1396 16.7959 56.0713 16.8594 55.9639 16.9277C55.8662 16.9863 55.8174 17.0645 55.8174 17.1621C55.8174 17.1816 55.8516 17.2305 55.9199 17.3086C55.9883 17.3867 56.0225 17.4453 56.0225 17.4844L55.9639 17.6748L55.9053 18.2168L56.0518 18.6855ZM65.2656 16.3564V16.2539C65.2656 16.1172 65.2754 16.0098 65.2949 15.9316C65.2363 15.7754 65.207 15.6338 65.207 15.5068C65.207 15.4873 65.2559 15.3506 65.3535 15.0967L65.4854 14.6426C65.5537 14.4668 65.5928 14.374 65.6025 14.3643C65.5439 14.208 65.5146 14.1201 65.5146 14.1006C65.5146 13.876 65.5781 13.6904 65.7051 13.5439C65.832 13.3975 65.9395 13.1924 66.0273 12.9287L66.3203 12.0352L66.8037 10.8633C66.8135 10.834 66.8574 10.7559 66.9355 10.6289C67.0234 10.502 67.0918 10.3945 67.1406 10.3066C67.1992 10.209 67.2773 10.0723 67.375 9.89648L67.5215 9.86719C67.5605 9.82812 67.5801 9.78906 67.5801 9.75C67.5801 9.73047 67.5605 9.65234 67.5215 9.51562L68.0342 8.66602L68.3418 8.03613C68.4395 7.87012 68.5469 7.7627 68.6641 7.71387C68.8594 7.35254 69.0303 7.13281 69.1768 7.05469C69.2354 6.86914 69.3428 6.66895 69.499 6.4541L69.7773 6.4248C69.8262 6.28809 69.875 6.18555 69.9238 6.11719L69.9531 5.82422C69.9531 5.88281 69.9775 5.86816 70.0264 5.78027C70.0752 5.68262 70.1484 5.50684 70.2461 5.25293L70.6416 4.79883L70.7588 4.59375C70.8076 4.52539 70.8857 4.39355 70.9932 4.19824C71.1396 4.13965 71.2617 4.03223 71.3594 3.87598L71.667 3.62695C71.6475 3.51953 71.7646 3.28027 72.0186 2.90918C72.1846 2.84082 72.3359 2.75293 72.4727 2.64551L72.6777 2.58691C72.6777 2.24512 72.7998 2.01074 73.0439 1.88379L73.2197 1.7666C73.376 1.68848 73.4639 1.64941 73.4834 1.64941L73.5859 1.62012C73.7031 1.58105 73.8398 1.56152 73.9961 1.56152C74.3574 1.56152 74.6846 1.69824 74.9775 1.97168C75.2705 2.23535 75.417 2.53809 75.417 2.87988C75.417 3.0166 75.3438 3.1582 75.1973 3.30469L75.1387 3.42188C75.002 3.95898 74.9043 4.22754 74.8457 4.22754C74.8066 4.22754 74.7529 4.25684 74.6846 4.31543C74.665 4.6377 74.6455 4.81836 74.626 4.85742C74.4502 4.88672 74.3623 5.10645 74.3623 5.5166C74.3428 5.5752 74.2695 5.67773 74.1426 5.82422C74.0254 5.96094 73.9326 6.15625 73.8643 6.41016C73.7959 6.6543 73.7227 6.77637 73.6445 6.77637H73.4834L73.5273 6.99609C73.5273 7.13281 73.459 7.26953 73.3223 7.40625C73.1953 7.5332 73.1172 7.66992 73.0879 7.81641C73.0586 7.96289 72.9414 8.13867 72.7363 8.34375L72.5898 8.57812C72.5312 8.67578 72.4531 8.77832 72.3555 8.88574C72.2578 8.99316 72.1748 9.15918 72.1064 9.38379L71.7256 10.0869C71.4619 10.5654 71.2617 10.7949 71.125 10.7754C71.0371 11.1562 70.9785 11.376 70.9492 11.4346C70.9199 11.4932 70.8516 11.5469 70.7441 11.5957C70.6367 11.6445 70.5537 11.7324 70.4951 11.8594C70.4365 11.9766 70.373 12.0645 70.3047 12.123L70.041 12.665C69.8848 12.7334 69.7725 12.8604 69.7041 13.0459C69.5479 13.085 69.4502 13.2168 69.4111 13.4414C69.3721 13.4805 69.3232 13.5684 69.2646 13.7051L68.752 14.2178C68.4883 14.4033 68.3467 14.6182 68.3271 14.8623C68.3076 15.0967 68.1807 15.2139 67.9463 15.2139C67.7803 15.2139 67.5361 15.1406 67.2139 14.9941H67.1846C67.1553 15.1309 67.0869 15.2822 66.9795 15.4482L67.0381 15.8438C67.0381 15.8926 66.96 16.2002 66.8037 16.7666C66.8818 16.9131 66.9209 17.0156 66.9209 17.0742L66.8916 17.3965L66.9648 17.792C67.0137 18.1143 67.1309 18.2754 67.3164 18.2754L67.668 18.334C67.6875 18.334 67.8096 18.2607 68.0342 18.1143L68.5762 17.8213C68.5957 17.8213 68.6055 17.8311 68.6055 17.8506C68.7031 17.8896 68.7812 17.9092 68.8398 17.9092C68.9375 17.9092 68.9863 17.8311 68.9863 17.6748V17.4844C69.0449 17.3867 69.1133 17.3281 69.1914 17.3086C69.2793 17.2891 69.3574 17.2451 69.4258 17.1768C69.4941 17.1084 69.5479 17.0742 69.5869 17.0742H69.7334C69.8799 17.0742 69.9531 16.9033 69.9531 16.5615C69.9922 16.542 70.041 16.5029 70.0996 16.4443H70.2754C70.3535 16.4443 70.4365 16.3516 70.5244 16.166C70.6221 15.9707 70.6904 15.8535 70.7295 15.8145C70.9053 15.7949 71.0273 15.7656 71.0957 15.7266C71.4082 15.1602 71.6475 14.877 71.8135 14.877H71.9014C72.0674 14.7207 72.1553 14.584 72.165 14.4668C72.1846 14.3398 72.2334 14.2568 72.3115 14.2178C72.3994 14.1787 72.4775 14.1299 72.5459 14.0713C72.6143 14.0127 72.6582 13.9834 72.6777 13.9834C72.8242 13.9834 72.8975 14.0371 72.8975 14.1445L72.8535 14.5547L72.9561 14.9941C72.9561 15.0332 72.9121 15.1113 72.8242 15.2285C72.7461 15.3359 72.707 15.458 72.707 15.5947C72.707 15.8779 72.6582 16.0293 72.5605 16.0488C72.4629 16.0684 72.3799 16.1367 72.3115 16.2539C72.2529 16.3613 72.1504 16.4639 72.0039 16.5615C71.8574 16.6494 71.7451 16.7812 71.667 16.957L71.418 17.0156L71.2715 17.1035C71.1543 17.4062 71.0273 17.5918 70.8906 17.6602C70.7637 17.7285 70.6025 17.9336 70.4072 18.2754C70.3779 18.2754 70.3633 18.2852 70.3633 18.3047L70.1289 18.2754C70.041 18.4316 69.9531 18.5244 69.8652 18.5537C69.7773 18.583 69.7041 18.6416 69.6455 18.7295C69.5869 18.8076 69.4795 18.876 69.3232 18.9346C69.1768 18.9932 69.084 19.0615 69.0449 19.1396C69.0059 19.2178 68.9473 19.2617 68.8691 19.2715C68.791 19.2812 68.7178 19.3203 68.6494 19.3887C68.5811 19.4473 68.5225 19.4766 68.4736 19.4766C68.4541 19.4766 68.3857 19.4668 68.2686 19.4473H68.21C68.0439 19.5645 67.9072 19.623 67.7998 19.623C67.6729 19.623 67.5801 19.6426 67.5215 19.6816C67.4629 19.6426 67.3701 19.6133 67.2432 19.5938C67.126 19.5742 66.9893 19.5254 66.833 19.4473C66.667 19.4863 66.5645 19.5059 66.5254 19.5059C66.3594 19.5059 66.1494 19.3447 65.8955 19.0225C65.6416 18.6904 65.5146 18.3682 65.5146 18.0557C65.5146 18.0459 65.4561 17.9727 65.3389 17.8359C65.2314 17.6895 65.1777 17.5332 65.1777 17.3672V17.2207L65.207 17.0449V16.7666L65.2363 16.6787C65.3828 16.6592 65.4561 16.6396 65.4561 16.6201L65.2656 16.3564ZM68.2393 12.4746L68.5469 12.2988C68.5859 12.1426 68.7129 11.957 68.9277 11.7422C69.1426 11.5176 69.2939 11.4053 69.3818 11.4053H69.499C69.499 11.3369 69.5137 11.2686 69.543 11.2002C69.5723 11.1318 69.5869 11.0391 69.5869 10.9219C69.5869 10.8633 69.7188 10.7021 69.9824 10.4385L70.0996 10.1748C70.1875 9.9209 70.4072 9.71094 70.7588 9.54492C70.8955 9.26172 70.998 9.12012 71.0664 9.12012L71.1836 9.09082C71.2227 8.94434 71.3008 8.8125 71.418 8.69531L71.4766 8.60742V8.37305C71.4766 8.35352 71.54 8.27539 71.667 8.13867C71.8037 7.99219 71.9014 7.86035 71.96 7.74316C72.0186 7.61621 72.0967 7.51855 72.1943 7.4502C72.3018 7.38184 72.375 7.25977 72.4141 7.08398L72.6484 7.05469C72.6484 6.92773 72.6582 6.84473 72.6777 6.80566L72.707 6.65918C72.7559 6.54199 72.9268 6.23438 73.2197 5.73633L73.4541 5.19434C73.4541 5.13574 73.4932 5.06738 73.5713 4.98926C73.6592 4.90137 73.7031 4.7793 73.7031 4.62305L73.8203 4.13965C73.8203 3.91504 73.7812 3.80273 73.7031 3.80273C73.6055 3.87109 73.5127 3.91992 73.4248 3.94922C73.3467 3.97852 73.2686 4.1543 73.1904 4.47656C72.8975 4.54492 72.7266 4.68652 72.6777 4.90137C72.6387 5.10645 72.5215 5.28223 72.3262 5.42871L72.2236 5.60449C72.2041 5.71191 72.1113 5.82422 71.9453 5.94141C71.7793 6.05859 71.623 6.25879 71.4766 6.54199C70.9883 7.21582 70.7197 7.57715 70.6709 7.62598L70.5244 7.80176L70.3047 7.77246C70.3438 7.92871 70.3633 8.0166 70.3633 8.03613C70.3633 8.09473 70.334 8.15332 70.2754 8.21191C70.2168 8.26074 70.1729 8.32422 70.1436 8.40234C70.1143 8.48047 70.0557 8.57324 69.9678 8.68066C69.8799 8.77832 69.7969 8.94434 69.7188 9.17871C69.6504 9.40332 69.5869 9.53516 69.5283 9.57422L69.3232 9.54492C69.1963 9.62305 69.1328 9.70117 69.1328 9.7793L69.1768 9.98438C69.1768 10.0234 69.1475 10.0723 69.0889 10.1309C69.04 10.1797 68.9912 10.2822 68.9424 10.4385C68.8936 10.5947 68.7715 10.834 68.5762 11.1562C68.3809 11.4688 68.2246 11.8057 68.1074 12.167C68 12.5186 67.8926 12.7432 67.7852 12.8408C67.8047 12.8604 67.834 12.8701 67.873 12.8701C68 12.8701 68.1221 12.7383 68.2393 12.4746ZM78.0684 7.43555L77.9805 6.86426V6.77637C77.9805 6.31738 78.1367 6.06348 78.4492 6.01465C78.5176 6.00488 78.7227 5.94141 79.0645 5.82422C79.2402 5.86328 79.4209 6.01953 79.6064 6.29297C79.8018 6.55664 79.8994 6.79102 79.8994 6.99609C79.8994 7.01562 79.8848 7.05957 79.8555 7.12793C79.8262 7.19629 79.8066 7.32812 79.7969 7.52344C79.7871 7.70898 79.6895 7.875 79.5039 8.02148C79.3281 8.1582 79.1377 8.22656 78.9326 8.22656C78.7959 8.22656 78.6201 8.13379 78.4053 7.94824C78.2002 7.75293 78.0879 7.58203 78.0684 7.43555ZM71.7402 14.7598L71.9746 14.5547H72.0625C72.1309 14.5547 72.2334 14.4814 72.3701 14.335L72.5166 14.2764C72.7119 13.9834 72.8828 13.8125 73.0293 13.7637L73.2637 13.5879C73.3027 13.5488 73.3564 13.5146 73.4248 13.4854C73.5029 13.4561 73.6201 13.3633 73.7764 13.207C73.9424 13.041 74.0742 12.958 74.1719 12.958C74.2695 12.958 74.3477 12.9678 74.4062 12.9873C74.4648 12.8701 74.582 12.7578 74.7578 12.6504C74.9336 12.5332 75.0752 12.3965 75.1826 12.2402L75.373 12.1523C75.5293 12.0742 75.666 11.9766 75.7832 11.8594C75.9102 11.7324 76.0713 11.6689 76.2666 11.6689C76.5498 11.6689 76.8428 11.8154 77.1455 12.1084C77.458 12.3916 77.6143 12.665 77.6143 12.9287L77.3652 14.0713C77.1992 14.9111 77.0137 15.3506 76.8086 15.3896L76.75 15.6973C76.6133 15.7949 76.5449 15.873 76.5449 15.9316L76.6328 16.2832C76.6328 16.332 76.5791 16.4053 76.4717 16.5029C76.4521 16.5029 76.4424 16.5322 76.4424 16.5908V17.1914C76.4424 17.2988 76.374 17.3867 76.2373 17.4551C76.2568 17.4746 76.2861 17.4941 76.3252 17.5137C76.3838 17.4551 76.5156 17.4258 76.7207 17.4258L76.9551 17.4551L77.2773 17.1328C77.3457 17.1133 77.4385 17.0693 77.5557 17.001C77.6826 16.9229 77.8926 16.8252 78.1855 16.708L80.1045 15.2432C80.3682 14.9795 80.5684 14.8477 80.7051 14.8477C80.8516 14.8477 80.9248 14.9404 80.9248 15.126C80.9248 15.3408 80.8809 15.5215 80.793 15.668C80.7148 15.8047 80.6416 15.9756 80.5732 16.1807C80.5049 16.376 80.4219 16.5127 80.3242 16.5908C80.2363 16.6689 80.1631 16.7568 80.1045 16.8545C80.0459 16.9424 79.8848 17.0742 79.6211 17.25C79.3672 17.4258 79.1475 17.6064 78.9619 17.792C78.7861 17.9678 78.6396 18.0947 78.5225 18.1729L77.8926 18.627L77.8047 18.7734C77.7852 18.793 77.6924 18.8369 77.5264 18.9053C77.3701 18.9639 77.2285 19.042 77.1016 19.1396L76.8379 19.2861C76.7793 19.3252 76.6816 19.3496 76.5449 19.3594C76.418 19.3691 76.3057 19.4277 76.208 19.5352C76.1104 19.6328 76.0322 19.6816 75.9736 19.6816L75.7539 19.6523L75.4609 19.7402C75.2949 19.7402 75.0898 19.6426 74.8457 19.4473C74.6113 19.2422 74.4941 19.0273 74.4941 18.8027V18.7148L74.5234 18.5098C74.5234 18.4707 74.4941 18.373 74.4355 18.2168C74.377 18.0508 74.3477 17.958 74.3477 17.9385L74.377 17.7334L74.3477 17.6455C74.3477 17.3818 74.3672 17.2158 74.4062 17.1475C74.4453 17.0791 74.4746 16.9863 74.4941 16.8691C74.5137 16.7422 74.5332 16.6396 74.5527 16.5615L74.626 16.1953C74.665 16.0781 74.7139 16 74.7725 15.9609C74.792 15.8828 74.8311 15.751 74.8896 15.5654L74.9482 15.3018L75.0947 15.0967C75.1729 15.0186 75.2168 14.916 75.2266 14.7891C75.2461 14.6523 75.2998 14.5107 75.3877 14.3643C75.4756 14.2178 75.5195 14.1299 75.5195 14.1006C75.5195 13.9834 75.4609 13.9248 75.3438 13.9248C75.3047 13.9248 75.1826 14.0029 74.9775 14.1592L74.7139 14.0713C74.6943 14.0713 74.6406 14.1201 74.5527 14.2178C74.5527 14.2568 74.5088 14.2861 74.4209 14.3057C74.333 14.3252 74.25 14.3984 74.1719 14.5254L74.0547 14.5547L73.8643 14.4668H73.8057C73.708 14.4668 73.6494 14.5742 73.6299 14.7891C73.5225 14.9453 73.3809 15.0479 73.2051 15.0967L72.8828 15.1846C72.7754 15.2236 72.6973 15.3115 72.6484 15.4482C72.5996 15.585 72.502 15.7119 72.3555 15.8291C72.209 15.9365 72.1113 15.9902 72.0625 15.9902C71.7891 15.9902 71.6523 15.8389 71.6523 15.5361L71.7695 14.8477L71.7402 14.7598ZM88.4688 18.3047L87.7803 18.9053C87.7412 18.8662 87.7021 18.8467 87.6631 18.8467C87.5654 18.8467 87.4434 18.9346 87.2969 19.1104C87.1602 19.2861 87.0625 19.374 87.0039 19.374L86.8574 19.3447C86.6133 19.5303 86.4375 19.6377 86.3301 19.667C86.2227 19.6963 86.0908 19.75 85.9346 19.8281C85.7881 19.9062 85.6514 19.9502 85.5244 19.96C85.4072 19.9697 85.3096 20.0137 85.2314 20.0918C85.1533 20.1602 84.9629 20.1943 84.6602 20.1943L84.4258 20.165C84.2988 20.2236 84.2158 20.2529 84.1768 20.2529C84.0986 20.2529 84.0156 20.2139 83.9277 20.1357C83.8398 20.0479 83.7422 19.999 83.6348 19.9893C83.5371 19.9795 83.4346 19.9111 83.3271 19.7842C83.2197 19.6572 83.1172 19.5693 83.0195 19.5205C82.9316 19.4717 82.8584 19.4033 82.7998 19.3154L82.5947 19.1396C82.4287 19.0225 82.2676 18.8076 82.1113 18.4951C81.9551 18.1826 81.877 17.9385 81.877 17.7627V17.7041L81.9062 17.4258L81.877 17.1035C81.916 17.0645 81.9648 16.9814 82.0234 16.8545V16.3857L82.375 15.2139C82.3945 15.165 82.3555 15.1016 82.2578 15.0234C82.1602 15.1699 82.0625 15.2578 81.9648 15.2871C81.8672 15.3164 81.7988 15.3848 81.7598 15.4922C81.7305 15.5996 81.6768 15.6533 81.5986 15.6533L81.4229 15.5947C81.4033 15.6143 81.3594 15.7168 81.291 15.9023C81.2227 16.0781 81.1055 16.166 80.9395 16.166C80.7637 16.166 80.6758 16.0977 80.6758 15.9609L80.7051 15.6973L80.6172 15.3311C80.6172 15.2529 80.6953 15.1016 80.8516 14.877C81.0078 14.6426 81.1494 14.5107 81.2764 14.4814C81.4131 14.4424 81.5254 14.3496 81.6133 14.2031C81.7109 14.0469 81.916 13.8613 82.2285 13.6465C82.4043 13.6074 82.5557 13.4805 82.6826 13.2656C82.8193 13.1582 82.9951 13.0703 83.21 13.002C83.4346 12.9336 83.6006 12.8359 83.708 12.709C83.8252 12.5723 84.1572 12.3672 84.7041 12.0938C85.2607 11.8105 85.666 11.6689 85.9199 11.6689C85.998 11.6689 86.1055 11.6494 86.2422 11.6104C86.3789 11.5615 86.5059 11.5225 86.623 11.4932C86.7402 11.4541 86.8623 11.4004 86.9893 11.332C87.1162 11.2539 87.2188 11.2148 87.2969 11.2148L87.7217 11.3613C88.0342 11.4492 88.2246 11.5127 88.293 11.5518C88.3125 11.5713 88.4102 11.6152 88.5859 11.6836C88.7715 11.7422 88.957 11.8252 89.1426 11.9326C89.3379 12.04 89.4355 12.2402 89.4355 12.5332C89.2695 12.7773 89.1865 12.9092 89.1865 12.9287C89.1865 12.9678 89.2988 13.0264 89.5234 13.1045C89.6016 13.251 89.7188 13.4414 89.875 13.6758L90.0361 14.1885L90.0654 15.3896L90.0361 15.5068C89.9287 15.6045 89.875 15.668 89.875 15.6973L89.9189 15.9902L89.8018 16.4004C89.7725 16.5273 89.7236 16.6104 89.6553 16.6494C89.5869 16.6885 89.543 16.7373 89.5234 16.7959L89.4355 16.9131C89.416 16.9424 89.3721 17.0303 89.3037 17.1768C89.2451 17.3135 89.1768 17.4209 89.0986 17.499C89.0205 17.5771 88.9717 17.6699 88.9521 17.7773C88.9326 17.8848 88.8838 17.9629 88.8057 18.0117C88.7275 18.0605 88.6689 18.1143 88.6299 18.1729C88.6006 18.2217 88.5469 18.2656 88.4688 18.3047ZM83.9131 18.6855L83.9717 19.0225L84.001 19.0518H84.2354L84.3086 19.0811C84.5039 19.1201 84.6504 19.1396 84.748 19.1396C85.0508 19.1396 85.29 19.0664 85.4658 18.9199C85.6514 18.7637 85.7979 18.6855 85.9053 18.6855C86.0127 18.6855 86.1006 18.6123 86.1689 18.4658C86.2471 18.3193 86.2959 18.2461 86.3154 18.2461H86.5205L86.5791 18.2168C86.5791 17.9922 86.6768 17.8311 86.8721 17.7334C87.0771 17.6357 87.2188 17.5088 87.2969 17.3525C87.3848 17.1865 87.4824 17.0645 87.5898 16.9863C87.6973 16.8984 87.7705 16.7861 87.8096 16.6494L87.9268 16.4736C87.9658 16.4346 87.9854 16.3613 87.9854 16.2539L88.2637 15.7266C88.3223 15.4824 88.3516 15.292 88.3516 15.1553C88.3516 14.9502 88.2441 14.7891 88.0293 14.6719C87.8242 14.5547 87.7217 14.3252 87.7217 13.9834C87.7217 13.7588 87.834 13.5537 88.0586 13.3682C88.293 13.1729 88.4102 13.0557 88.4102 13.0166C88.4102 12.958 88.3809 12.9287 88.3223 12.9287C88.293 12.9287 88.1807 12.9678 87.9854 13.0459C87.917 13.1826 87.5703 13.3633 86.9453 13.5879C86.7402 13.4902 86.6279 13.4414 86.6084 13.4414C86.5498 13.4414 86.4912 13.5 86.4326 13.6172C86.374 13.7344 86.3154 13.8174 86.2568 13.8662H86.0664C86.0469 13.8662 85.9834 13.9297 85.876 14.0566C85.7686 14.1836 85.6318 14.2471 85.4658 14.2471L85.29 14.4229C85.2998 14.5791 85.2021 14.7402 84.9971 14.9062L84.8359 15.0967C84.7383 15.2139 84.6113 15.3506 84.4551 15.5068L84.1914 16.166C84.084 16.4199 84.0303 16.6104 84.0303 16.7373C84.001 16.7959 83.9326 16.8594 83.8252 16.9277C83.7275 16.9863 83.6787 17.0645 83.6787 17.1621C83.6787 17.1816 83.7129 17.2305 83.7812 17.3086C83.8496 17.3867 83.8838 17.4453 83.8838 17.4844L83.8252 17.6748L83.7666 18.2168L83.9131 18.6855Z" fill="white"/>
</svg>
